<?xml version="1.0" encoding="UTF-8"?>
<!DOCTYPE svg PUBLIC "-//W3C//DTD SVG 1.1//EN" "http://www.w3.org/Graphics/SVG/1.1/DTD/svg11.dtd">
<svg xmlns="http://www.w3.org/2000/svg" version="1.1" width="1200px" height="780px" style="shape-rendering:geometricPrecision; text-rendering:geometricPrecision; image-rendering:optimizeQuality; fill-rule:evenodd; clip-rule:evenodd" xmlns:xlink="http://www.w3.org/1999/xlink">
<g><path style="opacity:0.99" fill="#d9251b" d="M 772.5,7.5 C 923.833,2.45453 1051,54.7879 1154,164.5C 1167.1,179.592 1179.43,195.259 1191,211.5C 1191.48,212.448 1191.65,213.448 1191.5,214.5C 1154.17,214.667 1116.83,214.5 1079.5,214C 979.191,113.015 858.858,76.0153 718.5,103C 643.304,121.619 578.97,158.619 525.5,214C 488.162,214.833 450.829,214.667 413.5,213.5C 464.012,139.752 530.012,84.5855 611.5,48C 663.025,25.5355 716.692,12.0355 772.5,7.5 Z"/></g>
<g><path style="opacity:0.996" fill="#003a6f" d="M 834.5,144.5 C 836.495,192.822 837.162,241.489 836.5,290.5C 869.167,290.5 901.833,290.5 934.5,290.5C 934.5,320.5 934.5,350.5 934.5,380.5C 901.833,380.5 869.167,380.5 836.5,380.5C 836.333,466.834 836.5,553.167 837,639.5C 838.48,668.483 853.647,682.816 882.5,682.5C 910.267,680.744 935.434,671.744 958,655.5C 951.249,686.272 943.749,716.938 935.5,747.5C 904.411,766.185 870.745,773.351 834.5,769C 790.896,761.4 762.062,736.567 748,694.5C 743.523,679.498 741.19,664.165 741,648.5C 740.5,559.167 740.333,469.834 740.5,380.5C 713.5,380.5 686.5,380.5 659.5,380.5C 659.5,350.5 659.5,320.5 659.5,290.5C 686.5,290.5 713.5,290.5 740.5,290.5C 740.167,258.493 740.5,226.493 741.5,194.5C 772.721,178.059 803.721,161.392 834.5,144.5 Z"/></g>
<g><path style="opacity:0.994" fill="#003a6f" d="M 247.5,282.5 C 319.708,281.778 378.375,309.278 423.5,365C 405.377,387.459 386.877,409.626 368,431.5C 351.067,413.785 331.567,399.619 309.5,389C 263.757,370.367 219.091,372.701 175.5,396C 133.324,423.139 110.158,461.973 106,512.5C 102.371,556.264 114.038,595.264 141,629.5C 176.033,667.083 219.199,682.917 270.5,677C 297.656,672.584 321.99,661.918 343.5,645C 351.975,638.193 360.141,631.026 368,623.5C 386.853,645.354 405.353,667.521 423.5,690C 364.853,758.775 290.853,784.442 201.5,767C 118.105,751.242 59.2721,704.742 25,627.5C 7.12852,578.782 2.46186,528.782 11,477.5C 31.9322,375.567 93.0988,312.734 194.5,289C 212.157,285.504 229.823,283.338 247.5,282.5 Z"/></g>
<g><path style="opacity:0.998" fill="#003b70" d="M 477.5,290.5 C 509.833,290.5 542.167,290.5 574.5,290.5C 574.5,447.833 574.5,605.167 574.5,762.5C 542.167,762.5 509.833,762.5 477.5,762.5C 477.5,605.167 477.5,447.833 477.5,290.5 Z"/></g>
<g><path style="opacity:0.995" fill="#003b6f" d="M 1032.5,290.5 C 1064.83,290.5 1097.17,290.5 1129.5,290.5C 1129.5,447.833 1129.5,605.167 1129.5,762.5C 1097.17,762.5 1064.83,762.5 1032.5,762.5C 1032.5,605.167 1032.5,447.833 1032.5,290.5 Z"/></g>
</svg>
