<?xml version="1.0" encoding="UTF-8"?>
<!DOCTYPE svg PUBLIC "-//W3C//DTD SVG 1.1//EN" "http://www.w3.org/Graphics/SVG/1.1/DTD/svg11.dtd">
<svg xmlns="http://www.w3.org/2000/svg" version="1.1" width="1000px" height="480px" style="shape-rendering:geometricPrecision; text-rendering:geometricPrecision; image-rendering:optimizeQuality; fill-rule:evenodd; clip-rule:evenodd" xmlns:xlink="http://www.w3.org/1999/xlink">
<g><path style="opacity:0.992" fill="#fefefe" d="M 86.5,122.5 C 354.5,122.5 622.5,122.5 890.5,122.5C 890.5,207.833 890.5,293.167 890.5,378.5C 622.5,378.5 354.5,378.5 86.5,378.5C 86.5,293.167 86.5,207.833 86.5,122.5 Z"/></g>
<g><path style="opacity:1" fill="#79cb8c" d="M 716.5,305.5 C 708.35,306.493 700.017,306.826 691.5,306.5C 691.5,250.5 691.5,194.5 691.5,138.5C 700.167,138.5 708.833,138.5 717.5,138.5C 717.832,194.336 717.499,250.002 716.5,305.5 Z"/></g>
<g><path style="opacity:1" fill="#25b04b" d="M 716.5,305.5 C 708.5,305.5 700.5,305.5 692.5,305.5C 692.5,250.167 692.5,194.833 692.5,139.5C 700.5,139.5 708.5,139.5 716.5,139.5C 716.5,194.833 716.5,250.167 716.5,305.5 Z"/></g>
<g><path style="opacity:1" fill="#3585fe" d="M 210.5,171.5 C 203.345,170.345 196.012,170.178 188.5,171C 185.282,171.9 182.282,173.067 179.5,174.5C 159.221,182.718 147.888,197.718 145.5,219.5C 145.111,225.109 144.111,230.609 142.5,236C 143.699,237.694 145.032,239.194 146.5,240.5C 156.574,272.219 178.24,285.719 211.5,281C 220.426,279.869 228.759,277.035 236.5,272.5C 237.496,258.343 237.829,244.01 237.5,229.5C 245.833,229.5 254.167,229.5 262.5,229.5C 262.5,247.5 262.5,265.5 262.5,283.5C 251.048,295.561 237.048,302.894 220.5,305.5C 216.64,305.808 212.974,306.475 209.5,307.5C 201.16,307.666 192.827,307.5 184.5,307C 182.753,306.648 181.086,306.148 179.5,305.5C 177.485,304.076 175.152,303.41 172.5,303.5C 144.429,293.759 126.762,274.425 119.5,245.5C 117.875,236.248 117.208,226.915 117.5,217.5C 121.826,186.071 138.493,163.571 167.5,150C 194.826,140.848 221.159,143.181 246.5,157C 249.671,159.341 252.671,161.841 255.5,164.5C 251.536,170.929 247.202,177.096 242.5,183C 241.5,183.667 240.5,183.667 239.5,183C 231.165,175.833 221.498,172 210.5,171.5 Z"/></g>
<g><path style="opacity:1" fill="#bdd4ff" d="M 210.5,171.5 C 199.956,170.825 189.623,171.825 179.5,174.5C 182.282,173.067 185.282,171.9 188.5,171C 196.012,170.178 203.345,170.345 210.5,171.5 Z"/></g>
<g><path style="opacity:1" fill="#a5c6ff" d="M 606.5,184.5 C 601.13,184.392 595.797,184.725 590.5,185.5C 593.356,183.994 596.523,183.328 600,183.5C 602.361,183.504 604.527,183.837 606.5,184.5 Z"/></g>
<g><path style="opacity:1" fill="#ff3627" d="M 398.5,223.5 C 398.723,227.162 399.723,230.495 401.5,233.5C 405.721,267.876 391.721,291.71 359.5,305C 348.243,307.533 336.91,308.033 325.5,306.5C 323.485,305.076 321.152,304.41 318.5,304.5C 300.318,298.318 287.652,286.318 280.5,268.5C 280.204,266.597 279.537,264.93 278.5,263.5C 277.85,261.565 277.517,259.565 277.5,257.5C 276.81,251.19 276.476,244.857 276.5,238.5C 279.371,217.455 290.037,201.621 308.5,191C 338.894,178.144 365.728,183.311 389,206.5C 393.205,211.575 396.371,217.242 398.5,223.5 Z"/></g>
<g><path style="opacity:1" fill="#ffbb0a" d="M 536.5,260.5 C 535.076,262.515 534.41,264.848 534.5,267.5C 522.506,294.277 501.673,307.611 472,307.5C 437.66,304.827 417.66,286.493 412,252.5C 409.829,222.012 422.662,200.512 450.5,188C 483.585,177.73 510.085,186.563 530,214.5C 537.266,229.057 539.433,244.391 536.5,260.5 Z"/></g>
<g><path style="opacity:1" fill="#fe3626" d="M 810.5,185.5 C 812.936,186.871 815.603,187.871 818.5,188.5C 836.884,195.385 848.384,208.385 853,227.5C 853.5,237.161 853.666,246.828 853.5,256.5C 822.167,256.5 790.833,256.5 759.5,256.5C 759.111,259.553 759.777,262.22 761.5,264.5C 764.5,273.5 770.5,279.5 779.5,282.5C 781.515,283.924 783.848,284.59 786.5,284.5C 803.383,288.237 818.216,284.237 831,272.5C 835.302,276.637 839.469,280.97 843.5,285.5C 843.804,286.15 844.137,286.817 844.5,287.5C 843.476,288.852 842.476,290.185 841.5,291.5C 833.276,298.279 823.943,302.945 813.5,305.5C 809.96,305.753 806.627,306.419 803.5,307.5C 796.124,307.726 788.791,307.392 781.5,306.5C 778.916,304.528 775.916,303.528 772.5,303.5C 756.167,297.167 744.833,285.833 738.5,269.5C 738.204,267.597 737.537,265.93 736.5,264.5C 731.545,244.581 734.379,225.914 745,208.5C 751.24,200.742 758.74,194.742 767.5,190.5C 771.165,190.498 774.165,189.165 776.5,186.5C 787.74,184.2 799.073,183.867 810.5,185.5 Z"/></g>
<g><path style="opacity:1" fill="#ffb5ae" d="M 810.5,185.5 C 813.716,185.345 816.383,186.345 818.5,188.5C 815.603,187.871 812.936,186.871 810.5,185.5 Z"/></g>
<g><path style="opacity:1" fill="#79a8ff" d="M 589.5,185.5 C 586.855,187.31 583.855,188.31 580.5,188.5C 583.084,186.528 586.084,185.528 589.5,185.5 Z"/></g>
<g><path style="opacity:1" fill="#3585fe" d="M 606.5,184.5 C 619.899,185.698 630.899,191.365 639.5,201.5C 639.56,202.043 639.893,202.376 640.5,202.5C 641.495,197.208 641.828,191.875 641.5,186.5C 649.833,186.5 658.167,186.5 666.5,186.5C 666.667,225.168 666.5,263.835 666,302.5C 662.155,330.677 646.322,347.51 618.5,353C 599.753,356.04 582.087,353.04 565.5,344C 562.091,341.966 559.091,339.466 556.5,336.5C 560.095,330.301 563.928,324.301 568,318.5C 587.332,333.464 607.832,335.297 629.5,324C 637.325,317.684 641.325,309.517 641.5,299.5C 642.819,292.656 642.819,285.656 641.5,278.5C 640.702,278.957 640.369,279.624 640.5,280.5C 626.095,299.169 607.428,305.002 584.5,298C 564.026,289.182 552.193,273.682 549,251.5C 544.664,222.838 555.164,201.838 580.5,188.5C 583.855,188.31 586.855,187.31 589.5,185.5C 589.833,185.5 590.167,185.5 590.5,185.5C 595.797,184.725 601.13,184.392 606.5,184.5 Z"/></g>
<g><path style="opacity:1" fill="#abc9ff" d="M 666.5,186.5 C 658.167,186.5 649.833,186.5 641.5,186.5C 641.828,191.875 641.495,197.208 640.5,202.5C 639.893,202.376 639.56,202.043 639.5,201.5C 640.488,196.36 640.821,191.026 640.5,185.5C 649.349,185.174 658.016,185.507 666.5,186.5 Z"/></g>
<g><path style="opacity:1" fill="#ff5d4b" d="M 776.5,186.5 C 774.165,189.165 771.165,190.498 767.5,190.5C 770.088,188.408 773.088,187.075 776.5,186.5 Z"/></g>
<g><path style="opacity:1" fill="#b5ceff" d="M 600.5,204.5 C 598.898,206.074 596.898,206.741 594.5,206.5C 596.102,204.926 598.102,204.259 600.5,204.5 Z"/></g>
<g><path style="opacity:1" fill="#fcfdfe" d="M 600.5,204.5 C 614.057,202.85 625.224,207.183 634,217.5C 636.038,220.243 637.538,223.243 638.5,226.5C 640.182,233.712 640.848,241.045 640.5,248.5C 634.843,270.169 620.843,279.669 598.5,277C 583.908,272.063 575.408,261.897 573,246.5C 571.032,228.094 578.199,214.76 594.5,206.5C 596.898,206.741 598.898,206.074 600.5,204.5 Z"/></g>
<g><path style="opacity:1" fill="#ffe7b1" d="M 480.5,207.5 C 474.797,207.375 469.13,207.708 463.5,208.5C 466.526,206.981 469.859,206.315 473.5,206.5C 476.025,206.503 478.359,206.837 480.5,207.5 Z"/></g>
<g><path style="opacity:1" fill="#fffcfb" d="M 827.5,228.5 C 827.5,231.167 827.5,233.833 827.5,236.5C 805.167,236.5 782.833,236.5 760.5,236.5C 760.616,233.14 760.949,229.807 761.5,226.5C 765.23,217.771 771.563,211.771 780.5,208.5C 783.152,208.59 785.485,207.924 787.5,206.5C 803.936,203.151 816.769,208.485 826,222.5C 826.813,224.436 827.313,226.436 827.5,228.5 Z"/></g>
<g><path style="opacity:1" fill="#fffcfc" d="M 375.5,233.5 C 376.341,240.465 376.674,247.465 376.5,254.5C 370.029,277.238 355.029,287.238 331.5,284.5C 328.855,282.69 325.855,281.69 322.5,281.5C 311.386,275.87 304.552,266.87 302,254.5C 298.29,230.061 308.124,214.228 331.5,207C 350.276,204.64 364.442,211.473 374,227.5C 374.505,229.518 375.005,231.518 375.5,233.5 Z"/></g>
<g><path style="opacity:1" fill="#fffefd" d="M 480.5,207.5 C 494.456,209.298 504.122,216.632 509.5,229.5C 511.607,238.772 511.94,248.106 510.5,257.5C 506.974,270.357 498.974,279.024 486.5,283.5C 481.203,284.275 475.87,284.608 470.5,284.5C 469.5,284.5 468.5,284.5 467.5,284.5C 465.485,283.076 463.152,282.41 460.5,282.5C 444.598,275.225 436.598,262.725 436.5,245C 436.996,226.361 445.996,214.195 463.5,208.5C 469.13,207.708 474.797,207.375 480.5,207.5 Z"/></g>
<g><path style="opacity:1" fill="#ffc0bb" d="M 787.5,206.5 C 785.485,207.924 783.152,208.59 780.5,208.5C 782.515,207.076 784.848,206.41 787.5,206.5 Z"/></g>
<g><path style="opacity:1" fill="#d4e3fe" d="M 117.5,217.5 C 117.208,226.915 117.875,236.248 119.5,245.5C 117.932,243.189 117.098,240.522 117,237.5C 116.179,230.654 116.346,223.987 117.5,217.5 Z"/></g>
<g><path style="opacity:1" fill="#ff7769" d="M 398.5,223.5 C 400.277,226.505 401.277,229.838 401.5,233.5C 399.723,230.495 398.723,227.162 398.5,223.5 Z"/></g>
<g><path style="opacity:1" fill="#84b1ff" d="M 262.5,283.5 C 262.5,265.5 262.5,247.5 262.5,229.5C 254.167,229.5 245.833,229.5 237.5,229.5C 237.829,244.01 237.496,258.343 236.5,272.5C 236.5,257.833 236.5,243.167 236.5,228.5C 245.5,228.5 254.5,228.5 263.5,228.5C 263.83,247.008 263.497,265.341 262.5,283.5 Z"/></g>
<g><path style="opacity:1" fill="#629aff" d="M 145.5,219.5 C 145.377,226.529 145.71,233.529 146.5,240.5C 145.032,239.194 143.699,237.694 142.5,236C 144.111,230.609 145.111,225.109 145.5,219.5 Z"/></g>
<g><path style="opacity:1" fill="#ffaba5" d="M 761.5,226.5 C 760.949,229.807 760.616,233.14 760.5,236.5C 782.833,236.5 805.167,236.5 827.5,236.5C 827.5,233.833 827.5,231.167 827.5,228.5C 828.477,231.287 828.81,234.287 828.5,237.5C 805.5,237.5 782.5,237.5 759.5,237.5C 759.116,233.511 759.783,229.845 761.5,226.5 Z"/></g>
<g><path style="opacity:1" fill="#abc9ff" d="M 638.5,226.5 C 639.6,228.277 640.434,230.277 641,232.5C 641.817,238.016 641.651,243.35 640.5,248.5C 640.848,241.045 640.182,233.712 638.5,226.5 Z"/></g>
<g><path style="opacity:1" fill="#ffefcc" d="M 509.5,229.5 C 511.824,234.628 512.824,240.128 512.5,246C 512.714,250.133 512.048,253.966 510.5,257.5C 511.94,248.106 511.607,238.772 509.5,229.5 Z"/></g>
<g><path style="opacity:1" fill="#ffa49d" d="M 375.5,233.5 C 377.055,237.203 377.722,241.203 377.5,245.5C 377.498,248.686 377.165,251.686 376.5,254.5C 376.674,247.465 376.341,240.465 375.5,233.5 Z"/></g>
<g><path style="opacity:1" fill="#ffb2ac" d="M 276.5,238.5 C 276.476,244.857 276.81,251.19 277.5,257.5C 276.078,253.761 275.411,249.761 275.5,245.5C 275.503,242.975 275.837,240.641 276.5,238.5 Z"/></g>
<g><path style="opacity:1" fill="#ffa59f" d="M 853.5,256.5 C 822.671,257.498 791.671,257.831 760.5,257.5C 760.674,259.861 761.007,262.194 761.5,264.5C 759.777,262.22 759.111,259.553 759.5,256.5C 790.833,256.5 822.167,256.5 853.5,256.5 Z"/></g>
<g><path style="opacity:1" fill="#ffe9b7" d="M 536.5,260.5 C 536.59,263.152 535.924,265.485 534.5,267.5C 534.41,264.848 535.076,262.515 536.5,260.5 Z"/></g>
<g><path style="opacity:1" fill="#ffb5ae" d="M 278.5,263.5 C 279.537,264.93 280.204,266.597 280.5,268.5C 278.787,267.365 278.12,265.698 278.5,263.5 Z"/></g>
<g><path style="opacity:1" fill="#ffb0a9" d="M 736.5,264.5 C 737.537,265.93 738.204,267.597 738.5,269.5C 736.787,268.365 736.12,266.698 736.5,264.5 Z"/></g>
<g><path style="opacity:1" fill="#ffb8b1" d="M 322.5,281.5 C 325.855,281.69 328.855,282.69 331.5,284.5C 328.084,284.472 325.084,283.472 322.5,281.5 Z"/></g>
<g><path style="opacity:1" fill="#bed6ff" d="M 641.5,299.5 C 641.823,292.978 641.49,286.645 640.5,280.5C 640.369,279.624 640.702,278.957 641.5,278.5C 642.819,285.656 642.819,292.656 641.5,299.5 Z"/></g>
<g><path style="opacity:1" fill="#ffc7c1" d="M 779.5,282.5 C 782.152,282.41 784.485,283.076 786.5,284.5C 783.848,284.59 781.515,283.924 779.5,282.5 Z"/></g>
<g><path style="opacity:1" fill="#ffe6ad" d="M 460.5,282.5 C 463.152,282.41 465.485,283.076 467.5,284.5C 464.848,284.59 462.515,283.924 460.5,282.5 Z"/></g>
<g><path style="opacity:1" fill="#ffd164" d="M 486.5,283.5 C 483.644,285.006 480.477,285.672 477,285.5C 474.639,285.496 472.473,285.163 470.5,284.5C 475.87,284.608 481.203,284.275 486.5,283.5 Z"/></g>
<g><path style="opacity:1" fill="#ffcac6" d="M 843.5,285.5 C 846.296,288.287 845.629,290.287 841.5,291.5C 842.476,290.185 843.476,288.852 844.5,287.5C 844.137,286.817 843.804,286.15 843.5,285.5 Z"/></g>
<g><path style="opacity:1" fill="#ff7667" d="M 772.5,303.5 C 775.916,303.528 778.916,304.528 781.5,306.5C 778.145,306.31 775.145,305.31 772.5,303.5 Z"/></g>
<g><path style="opacity:1" fill="#83b0ff" d="M 172.5,303.5 C 175.152,303.41 177.485,304.076 179.5,305.5C 176.848,305.59 174.515,304.924 172.5,303.5 Z"/></g>
<g><path style="opacity:1" fill="#ff948a" d="M 318.5,304.5 C 321.152,304.41 323.485,305.076 325.5,306.5C 322.848,306.59 320.515,305.924 318.5,304.5 Z"/></g>
<g><path style="opacity:1" fill="#bcd4fe" d="M 220.5,305.5 C 217.155,307.217 213.489,307.884 209.5,307.5C 212.974,306.475 216.64,305.808 220.5,305.5 Z"/></g>
<g><path style="opacity:1" fill="#ffcac6" d="M 813.5,305.5 C 813.082,306.222 812.416,306.722 811.5,307C 808.854,307.497 806.187,307.664 803.5,307.5C 806.627,306.419 809.96,305.753 813.5,305.5 Z"/></g>
</svg>
