<svg version="1.1" id="Layer_1" xmlns="http://www.w3.org/2000/svg" xmlns:xlink="http://www.w3.org/1999/xlink" x="0px" y="0px"
	 width="100%" viewBox="0 0 992 1024" enable-background="new 0 0 992 1024" xml:space="preserve">
<path fill="#000000" opacity="1.000000" stroke="none" 
	d="
M248.081635,964.070435 
	C214.580750,959.861084 184.839630,947.350830 157.690948,928.307068 
	C117.100639,899.834534 88.430038,862.194458 72.424095,815.342102 
	C62.245632,785.547913 59.039127,754.841309 62.294651,723.267090 
	C66.174515,685.637573 80.619377,652.310120 100.829735,621.019348 
	C115.115402,598.901428 133.321777,580.150574 151.841492,561.631592 
	C180.822174,532.651855 209.429398,503.298523 238.421967,474.330811 
	C283.211121,429.580109 328.275604,385.104980 373.059692,340.349243 
	C399.218719,314.206787 425.021271,287.707947 451.089630,261.474182 
	C454.551514,257.990295 454.614563,254.844147 451.447113,251.525543 
	C428.786652,227.783371 406.236786,203.932434 383.331177,180.428467 
	C366.072266,162.718750 344.296722,153.310104 320.764374,146.781219 
	C302.204102,141.631836 283.520020,140.861526 264.804169,143.298630 
	C228.424210,148.035889 197.030899,163.495316 173.874268,192.290756 
	C149.797684,222.230164 137.284409,256.669006 140.347076,295.724640 
	C143.008087,329.658173 157.240433,358.731140 178.425034,384.760437 
	C188.130661,396.685638 199.728302,406.779572 210.652084,417.523773 
	C215.042999,421.842529 219.274765,426.323456 223.682739,430.624268 
	C225.825897,432.715332 225.038574,434.437897 223.421677,436.217560 
	C208.074936,453.108826 191.898560,469.181213 175.431244,484.971375 
	C173.430939,486.889465 172.253479,486.408386 170.516571,484.651978 
	C154.352203,468.305664 138.155029,451.991211 121.877419,435.757721 
	C102.773819,416.705902 90.044518,393.484497 79.140038,369.270935 
	C63.416782,334.357178 58.107445,297.745209 62.373333,259.566620 
	C65.248444,233.835083 73.601639,210.223770 85.149307,187.179871 
	C104.388817,148.786530 132.683319,118.692085 168.642181,96.369537 
	C200.620956,76.517754 236.164871,66.494652 274.115417,64.478462 
	C317.112885,62.194157 356.464233,73.628815 393.879639,93.398727 
	C412.913177,103.455833 428.639191,117.980782 444.143494,132.676971 
	C480.313629,166.961853 514.372925,203.369202 550.070068,238.124664 
	C600.446411,287.172089 651.228943,335.803009 701.513306,384.944031 
	C724.864929,407.764709 748.644104,430.174225 770.919006,454.079437 
	C773.808350,457.180237 775.956238,456.754883 778.745178,453.874268 
	C792.534241,439.631989 806.129700,425.176361 820.447571,411.479706 
	C833.327087,399.158936 846.721680,387.368439 857.961304,373.473236 
	C874.186829,353.414337 885.095764,330.940979 888.724548,305.119629 
	C894.170288,266.370544 883.084595,232.011993 861.197571,200.568756 
	C840.666748,171.073883 811.662354,154.602676 777.313049,145.995331 
	C759.319092,141.486359 741.202209,140.889252 723.260925,143.668381 
	C696.357849,147.835663 671.699951,157.820770 651.129333,176.543549 
	C635.477112,190.789749 620.046509,205.261322 604.831055,219.967758 
	C603.393250,221.357468 601.904175,222.697937 600.523743,224.142334 
	C597.292725,227.523071 594.271179,227.677765 590.698669,224.345062 
	C576.567688,211.162689 562.421875,198.002106 548.868835,184.215836 
	C546.349365,181.653015 543.429688,179.483643 542.361328,178.570145 
	C548.435242,171.529617 554.141174,164.125732 560.659790,157.524353 
	C574.118408,143.894958 587.580994,130.216003 601.814636,117.416649 
	C630.090393,91.990143 663.410950,76.298576 700.590271,68.784317 
	C751.469727,58.501160 800.100037,66.115593 846.274963,88.887848 
	C889.560974,110.235374 920.976868,143.880600 943.391663,186.331482 
	C955.974487,210.161819 963.940857,235.419037 967.590637,262.054626 
	C970.491272,283.223480 968.769897,304.213806 964.918396,325.139343 
	C957.787231,363.883514 939.772522,397.138336 914.193787,426.625946 
	C888.166138,456.631165 858.859131,483.433777 830.907410,511.552124 
	C790.611084,552.088440 750.079285,592.396729 709.236755,632.382324 
	C664.583618,676.098572 620.522522,720.407349 576.091003,764.344360 
	C575.024780,765.398621 573.962158,766.457092 572.919006,767.533936 
	C570.615540,769.912048 570.721191,772.133667 573.192810,774.400330 
	C598.512939,797.620911 620.360291,824.261658 645.468506,847.705811 
	C660.642883,861.874329 677.461975,873.489197 697.060120,880.301331 
	C718.324585,887.692505 740.142578,890.067261 762.853210,887.326294 
	C803.505310,882.419983 835.437195,862.777588 859.860107,831.061401 
	C881.588440,802.844482 892.434570,770.424438 889.501343,734.417725 
	C886.523865,697.867859 870.387451,667.113708 845.332825,641.016968 
	C832.077820,627.210754 817.749329,614.426453 803.728271,601.371155 
	C800.591797,598.450745 800.878052,596.811096 803.733948,593.801270 
	C818.536743,578.200745 834.869324,564.178101 849.814148,548.734985 
	C854.595703,543.793945 856.415344,544.054077 861.170044,548.875549 
	C874.037231,561.923462 887.307251,574.576416 900.091248,587.703796 
	C930.834534,619.272949 952.762573,656.020508 962.457764,699.216492 
	C971.058350,737.535461 969.030151,775.617737 956.192444,812.906799 
	C946.493530,841.078613 931.667297,866.421021 913.308899,889.775085 
	C903.303223,902.503418 890.336792,911.925110 877.678284,921.705261 
	C859.476440,935.768372 839.707642,946.787476 817.831543,954.177429 
	C808.229736,957.421021 798.462585,960.586243 788.704590,962.468384 
	C776.282166,964.864258 763.475525,966.020752 750.652466,966.515625 
	C733.732788,967.168518 717.031555,965.525818 700.548096,962.656738 
	C692.267151,961.215210 683.923218,958.617920 675.880249,955.349121 
	C668.682068,952.423767 661.222168,950.061462 654.182373,946.707153 
	C627.575989,934.029358 604.266052,916.544067 583.341309,896.072937 
	C539.862671,853.536926 496.827820,810.546631 453.691315,767.661865 
	C401.104858,715.382324 348.592621,663.028198 296.068573,610.685974 
	C283.677460,598.337769 271.293457,585.980469 259.072388,573.465149 
	C256.016083,570.335205 254.374924,570.208130 251.353256,573.812744 
	C247.099823,578.886658 241.765472,583.039795 237.049988,587.743774 
	C219.593292,605.158081 202.250732,622.692322 184.912567,640.218140 
	C158.919312,666.492676 143.045364,698.203186 140.214127,735.390869 
	C136.923553,778.611755 150.847382,816.438232 180.772141,847.378906 
	C197.807037,864.992126 219.000061,877.343079 243.296112,883.208923 
	C293.031372,895.216614 337.545380,885.187622 376.202332,851.226318 
	C394.489197,835.160706 411.317352,817.597656 427.987640,799.887268 
	C429.004333,798.807312 430.140503,797.839905 431.383392,796.666870 
	C434.366699,798.644897 436.990356,800.811157 439.278107,803.466431 
	C450.494476,816.484497 462.541321,828.648743 475.894348,839.521851 
	C479.478546,842.440369 482.560333,846.028992 485.601440,849.544739 
	C488.082092,852.412415 485.590942,854.482178 483.762787,856.320801 
	C474.247803,865.890137 464.263855,875.025269 455.174469,884.979370 
	C432.286713,910.044556 405.434174,929.728088 375.151459,944.731445 
	C361.750580,951.370850 347.396057,955.567017 332.905579,959.411255 
	C316.126923,963.862488 299.125977,965.813232 281.880310,966.675842 
	C272.488892,967.145630 263.287567,965.863281 254.041153,964.761108 
	C252.203888,964.542175 250.366821,964.321472 248.081635,964.070435 
M374.620056,449.118500 
	C355.684570,468.331757 335.880859,486.676361 317.415985,506.362030 
	C311.281586,512.902039 311.163208,513.232971 317.391266,519.496887 
	C344.168213,546.428040 370.949127,573.355286 397.772736,600.239807 
	C435.539124,638.092041 473.339050,675.910767 511.157379,713.711060 
	C512.395325,714.948425 513.489319,716.552612 515.744141,716.861938 
	C521.548157,710.795288 526.523560,703.898254 532.286621,697.667664 
	C547.688171,681.016541 565.808838,667.276123 581.223267,650.566345 
	C604.250549,625.604004 630.208435,603.501343 653.247314,578.480225 
	C663.388611,567.466309 675.477844,558.398987 685.644958,547.335999 
	C693.756226,538.510071 702.068420,529.852661 710.603577,521.437073 
	C718.487732,513.663391 718.746460,513.773071 710.920837,505.921051 
	C691.637085,486.572235 672.259705,467.316864 652.950562,447.993347 
	C607.854980,402.864380 562.761963,357.732910 517.733582,312.536926 
	C515.187561,309.981415 513.505188,310.340332 511.160248,312.686646 
	C465.845093,358.028717 420.479218,403.320099 374.620056,449.118500 
z"/>
</svg>